<svg width="48" height="48" viewBox="0 0 48 48" fill="none" xmlns="http://www.w3.org/2000/svg">
<path d="M46.5 23.9992C46.5 14.1742 40.275 5.84917 31.5 2.77417V45.2242C40.275 42.1492 46.5 33.8242 46.5 23.9992Z" fill="#ED4C5C"/>
<path d="M1.5 23.9992C1.5 33.8242 7.8 42.1492 16.5 45.2242V2.77417C7.8 5.84917 1.5 14.1742 1.5 23.9992Z" fill="#75A843"/>
<path d="M31.5 2.77415C29.175 1.94915 26.625 1.49915 24 1.49915C21.375 1.49915 18.825 1.94915 16.5 2.77415V45.2241C18.825 46.0491 21.375 46.4991 24 46.4991C26.625 46.4991 29.175 46.0491 31.5 45.2241V2.77415Z" fill="white"/>
<path d="M30.5251 23.7741C30.4501 23.5491 30.3751 23.8491 30.3751 23.9241C30.3751 23.6991 30.3001 23.5491 30.1501 23.3241C29.9251 23.5491 29.8501 23.8491 29.8501 24.1491C29.7751 23.9241 29.7001 23.6991 29.4751 23.6241C29.6251 23.8491 29.5501 23.9991 29.5501 24.2241C29.5501 24.5241 29.7751 24.7491 29.7751 25.0491C29.7751 25.3491 29.6251 25.5741 29.4001 25.7991V25.5741C28.6501 25.8741 28.8001 26.2491 28.8001 26.9241C28.8001 27.5991 28.4251 27.4491 27.9751 27.8241C28.0501 27.6741 28.0501 27.4491 27.9751 27.2991C27.9751 27.7491 27.3751 27.7491 27.3001 28.1241C27.2251 28.2741 27.3001 28.5741 27.0751 28.6491C26.9251 28.7241 26.7001 28.8741 26.7001 29.0241C26.5501 28.9491 26.4001 28.9491 26.1751 28.9491C26.2501 28.8741 26.3251 28.8741 26.4001 28.7991C25.6501 28.4241 25.4251 29.2491 24.7501 29.3241C24.5251 29.3241 24.0001 29.0241 24.0001 29.3241C24.6751 29.3241 24.9751 29.9241 25.5001 29.9241C25.9501 29.9241 26.3251 29.5491 26.7751 29.5491C26.7001 29.5491 26.4751 29.3991 26.2501 29.3991C26.6251 29.1741 26.8501 28.7241 27.3001 28.7241C28.0501 28.7241 28.4251 28.5741 28.6501 27.8241C28.5751 27.8241 28.5001 27.8241 28.4251 27.8991C28.4251 27.5991 28.7251 27.2241 29.0251 27.0741C29.7751 26.9241 29.7001 26.3241 30.1501 25.7991C30.0001 25.7991 29.8501 25.8741 29.7001 26.0241C29.7001 25.5741 29.6251 25.1241 30.0001 24.8241C30.7501 24.4491 30.6751 24.2991 30.5251 23.7741ZM17.4751 23.7741C17.3251 24.3741 17.2501 24.5241 17.8501 24.8991C18.3001 25.1991 18.1501 25.6491 18.1501 26.0991C18.0001 25.9491 17.9251 25.8741 17.7001 25.8741C18.1501 26.3241 18.0751 26.9991 18.8251 27.1491C19.0501 27.2991 19.4251 27.6741 19.4251 27.9741C19.3501 27.9741 19.2751 27.8991 19.2001 27.8991C19.4251 28.6491 19.8001 28.7991 20.5501 28.7991C21.0001 28.7991 21.2251 29.2491 21.6001 29.4741C21.3751 29.4741 21.1501 29.5491 21.0751 29.6241C21.5251 29.6241 21.9001 30.0741 22.3501 29.9991C22.8751 29.9991 23.2501 29.3991 23.8501 29.3991C23.8501 29.0991 23.3251 29.3991 23.1001 29.3991C22.5001 29.2491 22.2751 28.4991 21.4501 28.7991C21.5251 28.8741 21.6001 28.9491 21.6751 28.9491C21.5251 28.9491 21.3001 28.8741 21.1501 29.0241C21.0751 28.8741 20.9251 28.7241 20.7751 28.6491C20.6251 28.4991 20.6251 28.2741 20.5501 28.1241C20.4001 27.7491 19.8751 27.6741 19.8751 27.2991C19.8001 27.4491 19.8001 27.6741 19.8751 27.8241C19.4251 27.4491 19.0501 27.5991 19.0501 26.9241C19.0501 26.3241 19.2001 25.8741 18.4501 25.5741V25.7991C18.2251 25.5741 18.0751 25.4241 18.0751 25.0491C18.0751 24.7491 18.3751 24.5241 18.3001 24.2241C18.3001 23.9991 18.2251 23.8491 18.3751 23.6241C18.1501 23.6991 18.0751 23.9241 18.0001 24.1491C18.0001 23.8491 17.9251 23.5491 17.7001 23.3241C17.6251 23.4741 17.5501 23.6991 17.4751 23.9241C17.5501 23.7741 17.4751 23.5491 17.4751 23.7741Z" fill="#75A843"/>
<path d="M26.025 28.2741C25.875 28.2741 25.8 28.1241 25.725 28.0491C25.725 27.8991 26.325 27.7491 26.4 27.7491V27.5991C25.425 27.8991 22.5 28.1241 21.9 27.0741C21.6 27.5241 21.075 27.2241 20.55 26.8491C20.625 26.9991 20.925 27.7491 20.925 27.6741C21.075 27.7491 22.05 27.9741 22.05 28.1991L21.825 28.4241C23.4 28.9491 24.375 29.0991 26.025 28.2741Z" fill="#428BC1"/>
<path d="M25.05 28.2741C25.125 28.1991 25.125 28.1241 25.125 27.9741L25.05 27.7491C25.2 27.5991 25.05 27.2241 24.825 27.2991C24.675 27.3741 24.75 27.3741 24.6 27.2991C24.525 27.2991 24.525 27.2241 24.45 27.2241H23.1C22.95 27.2241 22.95 27.1491 22.8 27.1491C22.65 27.0741 22.575 27.2241 22.5 27.2991C22.5 27.4491 22.575 27.4491 22.575 27.5241C22.575 27.5991 22.5 27.6741 22.5 27.8241C22.5 27.9741 22.575 28.0491 22.65 28.1241C22.35 28.3491 22.65 28.7241 22.95 28.4991C23.025 28.6491 23.25 28.6491 23.475 28.6491H24.3C24.45 28.6491 24.75 28.7241 24.825 28.4991C25.05 28.8741 25.35 28.4241 25.05 28.2741Z" fill="#ED4C5C"/>
<path d="M27.45 26.3242C26.85 25.5742 26.55 26.6992 25.875 26.6242C26.025 25.7242 24.675 26.0242 24.3 26.2492C24.375 26.1742 24.45 26.0242 24.525 25.8742C24.225 25.8742 23.85 26.0242 23.625 25.7992C23.175 25.4992 22.575 25.3492 22.2 25.8742C21.9 25.4242 21.075 24.9742 20.625 25.4242C20.625 24.9742 20.175 24.2992 19.65 24.3742C19.05 24.4492 19.275 25.1992 19.575 25.4992C19.8 25.7242 20.1 25.7992 20.4 25.7992C20.4 25.9492 20.475 26.0242 20.55 26.0992C20.925 26.3992 21.675 26.4742 22.05 26.1742C22.05 26.9242 23.55 26.9242 23.925 26.5492C23.775 26.9242 23.625 27.6742 24.15 27.6742C24.6 27.6742 24.45 27.2242 24.825 27.0742C25.125 26.9242 25.5 26.8492 25.8 26.9992C26.325 27.2992 27.975 27.2242 27.45 26.3242Z" fill="#428BC1"/>
<path d="M21.3001 24.4492C21.2251 24.2992 21.0751 24.1492 21.0751 24.1492C20.7751 24.2242 20.7751 23.9992 20.7001 23.7742C20.6251 23.3992 20.1001 23.2492 20.1001 22.9492C20.1001 22.6492 20.4001 22.3492 20.1751 22.0492C19.9501 21.7492 19.5751 21.5992 19.5751 21.7492C19.5001 21.8992 19.8751 21.8992 19.8751 22.2742C19.8751 22.7242 19.4251 23.0992 19.9501 23.4742C20.2501 23.9242 20.2501 24.7492 20.7751 24.7492C21.0001 24.7492 21.2251 24.6742 21.3001 24.4492Z" fill="#75A843"/>
<path d="M22.425 24.0742C22.275 23.7742 22.425 23.3242 22.125 23.0992C21.75 22.7992 21 23.3992 20.925 22.6492C20.925 22.4992 21.75 21.5992 21.9 21.5242C22.125 21.2242 22.05 20.6992 21.825 20.5492C21.525 20.3992 21.45 20.5492 21.225 20.8492C21.3 20.9242 21.6 21.0742 21.6 21.1492C21.375 21.6742 20.7 21.7492 20.55 22.2742C20.4 22.6492 20.475 23.2492 20.85 23.4742C21.075 23.6242 21.225 23.6242 21.45 23.6242C22.125 23.5492 21.75 23.6992 21.825 23.8492C21.825 23.9992 22.05 24.5242 22.425 24.0742ZM20.175 20.3992C20.175 20.8492 20.625 20.7742 20.925 20.6992C20.925 20.5492 20.925 20.3992 21 20.2492C20.85 20.3242 20.625 20.3242 20.55 20.2492C20.325 20.0992 21.075 19.7992 21 19.7992C21 19.7992 20.25 20.1742 20.55 19.7242C20.625 19.5742 20.775 19.4242 20.85 19.2742C20.925 19.1242 20.625 19.2742 20.625 19.2742C20.55 19.2742 20.475 19.2742 20.4 19.3492C19.95 19.7242 20.1 19.9492 20.175 20.3992Z" fill="#75A843"/>
<path d="M28.125 20.3991C27.75 19.8741 26.325 18.1491 24.3 17.9991C24.075 17.9991 23.475 18.2241 23.25 18.2991C22.575 18.7491 24 19.1241 24.075 19.4241C24.075 19.5741 24.15 19.6491 24.15 19.7991C23.925 19.4241 23.7 19.1991 23.625 19.0491C23.25 19.1991 22.65 18.9741 22.575 18.5991C22.5 18.7491 22.5 18.8241 22.35 18.9741C22.35 18.7491 22.275 18.7491 22.2 18.5991C22.2 18.8241 22.2 19.1241 21.975 19.1991C22.05 19.0491 21.975 18.8991 21.9 18.7491C21.9 18.9741 21.9 19.1241 21.75 19.2741C21.825 19.1241 21.675 19.0491 21.675 18.8991C21.6 19.4991 20.775 19.7241 21.6 19.9491C21.9 20.0241 22.05 19.9491 22.35 20.0991C22.425 20.1741 22.575 20.3241 22.575 20.2491C22.575 20.3241 22.275 20.6241 22.5 20.6991C22.425 20.7741 22.2 21.2241 22.2 21.2241C22.425 21.2241 22.275 21.3741 22.125 21.5241C21.9 21.8991 22.125 22.2741 22.2 22.7241C22.2 22.5741 22.425 22.7991 22.425 23.0241C22.425 23.3241 22.725 23.4741 22.8 23.6991C22.425 23.3241 22.35 23.6991 22.8 23.9241C22.425 23.9241 22.35 24.1491 22.725 24.2991C21.825 24.2991 22.575 24.6741 22.725 24.7491C23.325 24.8991 23.775 24.4491 23.775 24.3741C23.775 24.3741 24.975 25.5741 25.05 25.5741C25.125 25.5741 25.725 25.2741 25.875 25.4241C26.025 25.6491 26.175 25.4241 26.325 25.4991C26.475 25.6491 27.075 25.4991 27.225 25.4241C27.3 25.4241 28.05 25.2741 27.9 25.1241C27.525 24.8241 27.075 24.5241 26.7 24.2241C26.325 23.9241 25.95 23.6991 25.65 23.3991C25.5 23.2491 25.5 22.9491 25.425 22.7241C26.1 23.3991 26.775 23.7741 26.7 22.4991C27.15 22.8741 28.05 24.9741 28.125 24.9741C28.35 24.9741 28.125 22.7241 28.125 22.4991C28.425 22.7991 28.425 25.2741 28.5 25.2741C28.875 25.3491 29.4 22.0491 28.125 20.3991Z" fill="#89664C"/>
<path d="M22.7251 24.2241C22.6501 24.2241 22.2751 23.6991 22.2751 23.6241C22.5001 24.5241 21.6001 23.9991 21.8251 23.6241C21.5251 23.5491 20.7751 23.9991 21.0751 24.4491C20.9251 24.7491 22.1251 24.5241 22.2001 24.3741C22.5001 25.0491 23.2501 24.2991 22.7251 24.2241ZM26.2501 26.4741C26.6251 25.9491 25.0501 25.7991 25.2001 25.1991C24.9751 25.3491 24.6751 25.8741 24.3751 25.7241C24.2251 25.6491 23.6251 26.0241 23.9251 26.2491C23.9251 25.9491 24.0751 26.1741 24.3001 26.0991C24.2251 26.3241 24.0001 26.5491 24.3751 26.6991C24.2251 26.2491 24.8251 26.4741 24.7501 26.2491C24.6001 26.0991 25.2751 26.0991 25.3501 26.0991C25.5751 26.0991 26.3251 26.3241 26.0251 26.5491C26.0251 26.5491 26.1751 26.5491 26.2501 26.4741ZM21.2251 20.0241C21.1501 20.1741 20.8501 20.3991 20.8501 20.6241C20.8501 20.7741 21.2251 21.1491 21.3751 20.9241C20.9251 20.6241 21.4501 20.3991 21.6751 20.3991C21.7501 20.3991 21.7501 20.5491 21.7501 20.5491C21.8251 20.6241 22.4251 20.3991 22.3501 20.2491C22.4251 19.9491 21.4501 19.9491 21.2251 20.0241Z" fill="#FFCE31"/>
</svg>
