<svg width="81" height="81" viewBox="0 0 81 81" fill="none" xmlns="http://www.w3.org/2000/svg">
<path fill-rule="evenodd" clip-rule="evenodd" d="M73.2242 26.0717C73.9653 26.8581 74.5443 27.7828 74.9279 28.793C75.3116 29.8032 75.4925 30.879 75.4603 31.9591C75.4281 33.0392 75.1834 34.1024 74.7402 35.0879C74.2971 36.0735 73.6641 36.962 72.8774 37.7028L35.2858 73.1277C33.7149 74.6077 31.6254 75.4111 29.4676 75.3647C27.3098 75.3183 25.2567 74.4258 23.7509 72.8796L7.89516 56.591C6.37326 55.0275 5.53479 52.9234 5.56423 50.7417C5.59366 48.56 6.48857 46.4793 8.0521 44.9574C9.61562 43.4355 11.7197 42.597 13.9014 42.6265C16.0831 42.6559 18.1638 43.5508 19.6857 45.1143L29.8943 55.6013L61.5982 25.7275C63.1859 24.2312 65.303 23.4268 67.4837 23.4914C69.6645 23.556 71.7303 24.4841 73.2267 26.0717" fill="black"/>
</svg>
