<svg width="92" height="92" viewBox="0 0 92 92" fill="none" xmlns="http://www.w3.org/2000/svg">
<path d="M59.788 45.9942C59.788 53.303 53.6037 59.2278 45.975 59.2278C38.3464 59.2278 32.1621 53.303 32.1621 45.9942C32.1621 38.6855 38.3464 32.7607 45.975 32.7607C53.6037 32.7606 59.788 38.6855 59.788 45.9942ZM46 18.4399C38.1014 18.475 29.9143 20.3979 22.164 24.0793C16.4096 26.9253 10.8016 30.9407 5.93354 35.8968C3.54261 38.4267 0.493043 42.09 0 45.9985C0.0582667 49.3842 3.68997 53.5632 5.93354 56.1004C10.4985 60.8618 15.9605 64.7651 22.164 67.9208C29.3915 71.4283 37.3913 73.4478 46 73.5601C53.9061 73.5246 62.0914 71.5795 69.8331 67.9208C75.5875 65.0747 81.1984 61.0565 86.0665 56.1004C88.4573 53.5704 91.5069 49.9071 92 45.9985C91.9417 42.6129 88.31 38.4338 86.0665 35.8966C81.5015 31.1352 76.0366 27.2349 69.8331 24.0792C62.6094 20.5743 54.5899 18.5687 46 18.4399ZM45.9942 25.2823C57.9633 25.2823 67.6659 34.5585 67.6659 46.0015C67.6659 57.4446 57.9633 66.7207 45.9942 66.7207C34.0251 66.7207 24.3224 57.4444 24.3224 46.0015C24.3224 34.5585 34.0251 25.2823 45.9942 25.2823Z" fill="black"/>
</svg>
