<svg width="85" height="85" viewBox="0 0 85 85" fill="none" xmlns="http://www.w3.org/2000/svg">
<g clip-path="url(#clip0_2350_406)">
<path fill-rule="evenodd" clip-rule="evenodd" d="M69.259 0.302563C69.9871 0.604152 70.6094 1.11491 71.0473 1.77023C71.4851 2.42555 71.7187 3.196 71.7186 3.98413V13.281H81.0155C81.803 13.2817 82.5727 13.5157 83.2273 13.9536C83.8819 14.3915 84.392 15.0135 84.6933 15.7411C84.9946 16.4687 85.0735 17.2693 84.92 18.0417C84.7666 18.8142 84.3877 19.5238 83.8311 20.081L67.8936 36.0185C67.1471 36.7659 66.1344 37.1863 65.078 37.1873H63.0752C64.1301 41.2738 63.9443 45.582 62.5414 49.5625C61.1384 53.543 58.5819 57.0156 55.1978 59.5376C51.8137 62.0596 47.7552 63.5168 43.5397 63.7233C39.3242 63.9299 35.1427 62.8765 31.5282 60.6974C27.9137 58.5183 25.03 55.3123 23.2447 51.4879C21.4593 47.6636 20.8532 43.3943 21.5036 39.2242C22.1539 35.054 24.0314 31.1721 26.8965 28.073C29.7617 24.974 33.4848 22.7984 37.5911 21.8235C38.6197 21.579 39.7032 21.7532 40.6034 22.3076C41.5035 22.8621 42.1465 23.7514 42.391 24.7799C42.6354 25.8085 42.4613 26.892 41.9069 27.7921C41.3524 28.6923 40.4631 29.3353 39.4346 29.5798C36.7797 30.2084 34.3828 31.6394 32.5699 33.6782C30.7569 35.717 29.6158 38.2647 29.3018 40.9749C28.9877 43.685 29.516 46.4261 30.8146 48.8255C32.1133 51.2249 34.1194 53.1661 36.5602 54.3852C39.0009 55.6043 41.7579 56.0422 44.4563 55.6392C47.1547 55.2363 49.6635 54.0121 51.6416 52.1331C53.6197 50.2541 54.9712 47.8115 55.5122 45.1374C56.0533 42.4633 55.7576 39.6874 54.6655 37.1873H53.4436L45.3155 45.3154C44.9508 45.7068 44.5109 46.0208 44.0221 46.2386C43.5334 46.4564 43.0058 46.5735 42.4708 46.5829C41.9358 46.5923 41.4044 46.4939 40.9083 46.2935C40.4122 46.0931 39.9615 45.7949 39.5831 45.4165C39.2048 45.0382 38.9065 44.5875 38.7061 44.0914C38.5057 43.5952 38.4073 43.0638 38.4168 42.5289C38.4262 41.9939 38.5433 41.4663 38.7611 40.9775C38.9788 40.4888 39.2928 40.0489 39.6843 39.6841L47.8124 31.556V19.9216C47.8133 18.8653 48.2337 17.8525 48.9811 17.106L64.9186 1.1685C65.4755 0.611264 66.185 0.231592 66.9575 0.0774632C67.73 -0.0766653 68.5309 0.00166761 69.259 0.302563ZM55.7811 21.5738V29.2185H63.4311L71.3999 21.2498L63.7499 21.2498V13.5998L55.7811 21.5738ZM25.6061 12.3779C31.8285 8.88761 38.9792 7.41034 46.0752 8.14913C46.5957 8.20319 47.1217 8.15422 47.6232 8.00501C48.1247 7.85579 48.5919 7.60926 48.9981 7.27948C49.4044 6.9497 49.7417 6.54314 49.9908 6.083C50.2399 5.62286 50.396 5.11816 50.4501 4.59772C50.5041 4.07727 50.4551 3.55128 50.3059 3.04976C50.1567 2.54824 49.9102 2.08102 49.5804 1.67478C49.2506 1.26854 48.8441 0.931226 48.3839 0.682108C47.9238 0.432991 47.4191 0.276943 46.8986 0.222875C38.1642 -0.685939 29.3627 1.13321 21.7042 5.43021C14.0458 9.72721 7.90639 16.2911 4.13023 24.2193C0.354065 32.1475 -0.873466 41.0509 0.616405 49.7051C2.10628 58.3594 6.24039 66.3397 12.4503 72.5488C18.6603 78.7579 26.6412 82.8909 35.2957 84.3796C43.9502 85.8682 52.8533 84.6394 60.781 80.8622C68.7087 77.0849 75.2717 70.9446 79.5677 63.2855C83.8636 55.6265 85.6815 46.8247 84.7715 38.0904C84.7174 37.5699 84.5613 37.0652 84.3122 36.6051C84.0631 36.145 83.7258 35.7384 83.3196 35.4086C82.9133 35.0788 82.4461 34.8323 81.9446 34.6831C81.4431 34.5339 80.9171 34.4849 80.3966 34.539C79.8762 34.593 79.3715 34.7491 78.9113 34.9982C78.4512 35.2473 78.0446 35.5846 77.7149 35.9909C77.3851 36.3971 77.1385 36.8643 76.9893 37.3659C76.8401 37.8674 76.7911 38.3934 76.8452 38.9138C77.4923 45.1121 76.45 51.3699 73.8287 57.0238C71.2074 62.6777 67.105 67.5168 61.9563 71.028C56.8077 74.5392 50.8048 76.5917 44.5842 76.9677C38.3636 77.3437 32.1572 76.0293 26.6231 73.1639C21.089 70.2984 16.4335 65.9887 13.1503 60.6918C9.86703 55.3949 8.07845 49.3081 7.97419 43.0771C7.86994 36.846 9.45389 30.7028 12.5581 25.299C15.6623 19.8952 20.171 15.4322 25.6061 12.3832V12.3779Z" fill="black"/>
</g>
<defs>
<clipPath id="clip0_2350_406">
<rect width="85" height="85" fill="white"/>
</clipPath>
</defs>
</svg>
